<?xml version="1.0" encoding="iso-8859-1"?>
<!-- Generator: Adobe Illustrator 19.0.0, SVG Export Plug-In . SVG Version: 6.00 Build 0)  -->
<svg version="1.1" id="Layer_1" xmlns="http://www.w3.org/2000/svg" xmlns:xlink="http://www.w3.org/1999/xlink" x="0px" y="0px"
	 viewBox="0 0 512 512" style="enable-background:new 0 0 512 512;" xml:space="preserve">
<g>
	<rect x="176.552" y="26.483" style="fill:#E1BE8C;" width="158.897" height="17.655"/>
	<rect x="176.552" y="88.276" style="fill:#E1BE8C;" width="158.897" height="17.655"/>
	<rect x="176.552" y="150.069" style="fill:#E1BE8C;" width="158.897" height="17.655"/>
	<rect x="176.552" y="397.241" style="fill:#E1BE8C;" width="158.897" height="17.655"/>
	<rect x="176.552" y="211.862" style="fill:#E1BE8C;" width="158.897" height="17.655"/>
	<rect x="176.552" y="273.655" style="fill:#E1BE8C;" width="158.897" height="17.655"/>
	<rect x="176.552" y="335.448" style="fill:#E1BE8C;" width="158.897" height="17.655"/>
	<rect x="176.552" y="459.034" style="fill:#E1BE8C;" width="158.897" height="17.655"/>
</g>
<g>
	<path style="fill:#FFDCA0;" d="M343.399,512h8.83c4.991,0,8.989-4.134,8.823-9.122L344.574,8.533C344.414,3.775,340.51,0,335.75,0
		h-8.83c-4.991,0-8.989,4.134-8.823,9.122l16.478,494.345C334.734,508.225,338.637,512,343.399,512z"/>
	<path style="fill:#FFDCA0;" d="M168.601,512h-8.83c-4.991,0-8.989-4.134-8.823-9.122L167.426,8.533
		C167.586,3.775,171.49,0,176.25,0h8.83c4.991,0,8.989,4.134,8.823,9.122l-16.478,494.345C177.266,508.225,173.363,512,168.601,512z
		"/>
</g>
<g>
</g>
<g>
</g>
<g>
</g>
<g>
</g>
<g>
</g>
<g>
</g>
<g>
</g>
<g>
</g>
<g>
</g>
<g>
</g>
<g>
</g>
<g>
</g>
<g>
</g>
<g>
</g>
<g>
</g>
</svg>
