<svg width="850" height="1180" xmlns="http://www.w3.org/2000/svg" preserveAspectRatio="xMidYMid meet">
 <g>
  <title>background</title>
  <rect x="-1" y="-1" width="852" height="1182" id="canvas_background" fill="none"/>
 </g>

 <g>
  <title>Layer 1</title>
  <g fill="#c1c332" id="svg_1">
   <path d="m15.605975,58.035855c-1.931204,1.811201 -5.063836,5.09093 -6.865977,7.293721c-3.688828,4.458985 -3.764489,4.151942 3.498349,17.897529c6.835618,13.069213 258.12601,412.971258 337.304184,536.827859c27.862777,43.550497 60.714252,95.186343 73.050249,114.716658c134.414305,212.804338 217.263972,344.158948 230.627991,365.878594c2.509921,3.9737 4.895266,8.499198 5.326973,10.11896l0.8723,2.879078l-13.887936,8.535528c-9.322408,5.651788 -13.558635,8.682363 -12.84663,9.06058c2.220563,1.08125 8.143327,-1.713544 17.599198,-8.277575c8.864043,-6.190213 9.932008,-6.746497 12.891234,-6.368367l3.181722,0.355872l-1.824399,1.980295c-1.023448,1.001277 -4.54327,3.106236 -7.800566,4.690542c-3.310698,1.499759 -6.492333,3.391108 -7.177594,4.178774c-1.11688,1.415125 -0.925528,1.530816 1.650994,1.677564c2.300623,0.08446 4.06722,-0.676549 8.196642,-3.876218c4.129422,-3.199668 5.726925,-3.853872 7.773908,-3.609205c2.407428,0.253553 1.784456,0.765321 -9.611592,7.253778c-6.670313,3.858359 -13.83902,7.676687 -15.912661,8.513357c-2.46523,0.965733 -4.725736,2.630099 -6.44333,4.779488c-1.864429,2.47869 -5.762469,5.295654 -14.208265,10.275467c-16.669095,9.937367 -34.917835,22.055267 -35.229278,23.434761c-0.155721,0.689747 3.008142,-0.480711 7.110906,-2.599042c8.152125,-4.32121 43.118877,-27.235318 50.109518,-32.833616c2.945766,-2.452032 7.271026,-4.592622 14.159436,-7.169406c5.406597,-2.113932 10.007756,-4.192234 10.270282,-4.712887c0.556197,-1.179256 3.648886,-1.713369 4.236314,-0.783354c0.640831,1.014562 -25.114804,17.164401 -38.184017,24.000019c-15.374236,8.054992 -29.684906,16.857532 -30.904105,19.046951c-0.818723,1.69991 -0.458278,1.708795 3.021514,0.102231c2.242734,-0.943475 14.6222,-7.934814 27.455544,-15.331116c12.833344,-7.396302 36.163867,-20.831582 39.172009,-21.312292c2.087013,-0.253728 -5.046064,4.370039 -27.749128,18.236939c-30.165442,18.343831 -33.133466,20.573368 -27.157213,20.110341c2.278365,-0.138037 32.563897,-19.977053 33.582858,-21.921717c0.17798,-0.467251 3.911412,-2.234023 8.227786,-4.014167c4.231827,-1.726742 9.878692,-4.583824 12.446241,-6.323851c2.905736,-1.953637 5.40211,-3.05732 6.367756,-2.83931c1.432897,0.395989 -3.44856,3.715835 -24.331624,16.906274c-20.883064,13.190438 -25.795665,16.648234 -24.469574,16.875129c1.103595,0.249154 4.805883,-1.379669 9.731857,-4.254522c9.206717,-5.460436 12.010135,-6.63978 12.811173,-5.371577c0.427221,0.676375 -0.618485,1.455155 -3.030313,2.505435c-3.871382,1.735628 -5.299705,4.530247 -1.490611,3.070518c3.417504,-1.330665 35.376288,-19.269622 56.379529,-31.708025l19.258903,-11.454898l-2.78582,-4.035989c-1.526417,-2.229361 -3.021689,-4.596672 -3.44891,-5.273047c-0.769895,-1.406152 16.522173,-11.855286 64.211152,-38.783736c27.148501,-15.255455 40.938518,-24.320522 48.071508,-31.191509l3.555366,-3.546742l-3.947305,-5.313077c-2.229536,-2.968024 -8.579957,-12.085708 -14.120453,-20.295635c-11.59276,-17.042826 -41.867364,-59.543043 -66.908515,-93.757672c-51.288303,-70.151338 -72.471183,-99.942874 -121.868311,-171.407018c-19.393937,-28.082828 -46.811546,-67.183401 -60.887483,-87.034044c-14.107081,-19.712694 -30.41704,-43.474748 -36.206778,-52.828301c-5.820882,-9.215603 -14.116054,-21.599468 -18.414918,-27.281877c-19.447252,-25.920155 -40.590102,-56.210086 -96.1419,-137.980056c-44.065843,-64.896237 -52.935072,-77.627176 -85.866433,-123.771792c-42.428048,-59.307174 -76.783507,-108.455445 -132.393107,-189.006129c-15.348713,-22.240212 -41.115329,-59.663221 -57.40303,-83.202779c-16.203154,-23.592961 -29.896387,-43.212222 -30.439299,-43.697245c-0.542912,-0.485023 -3.119434,-0.631771 -5.842791,-0.449217c-4.196284,0.284959 -5.962881,1.045968 -12.366181,5.327061c-4.142794,2.616727 -8.872929,6.550659 -10.559379,8.562098l-3.056971,3.586772l6.087895,9.638337l6.087895,9.638337l-6.234206,4.174287c-3.359614,2.3586 -11.547283,8.121592 -18.07516,12.954482c-6.496732,4.694941 -13.7455,9.510059 -16.157328,10.560339l-4.294116,2.002641l-5.97669,-10.773077c-5.442664,-9.927608 -6.061237,-10.719674 -7.979156,-10.572751c-3.306299,0.195926 -9.914323,3.778386 -13.830134,7.316241zm84.896073,2.203873c1.214887,1.361635 8.771309,12.201399 16.714922,24.215933l14.529902,21.692901l-12.646392,8.815826c-7.026272,4.79286 -16.936021,11.761854 -22.133407,15.517806l-9.487015,6.701981l-1.842346,-1.793255c-2.523207,-2.309422 -30.64411,-46.643098 -30.448359,-47.83124c0.17798,-0.467251 8.481339,-6.421595 18.635843,-13.190351c10.154504,-6.768756 19.801727,-13.217096 21.439261,-14.369695c2.767787,-1.984782 3.128232,-1.975896 5.237591,0.240093zm44.59547,67.045539c7.79669,10.096615 32.824643,48.222743 32.063722,48.703366c-0.422734,0.267013 -7.404489,5.504865 -15.601044,11.628304c-12.948948,9.834874 -22.725235,15.891625 -29.168652,18.423892c-1.82,0.676462 -2.38517,-0.031057 -19.033404,-25.826722c-14.534389,-22.636289 -16.875217,-26.716794 -16.127668,-27.780359c1.148025,-1.553074 21.928683,-16.216439 34.5039,-24.395921l9.277892,-6.096781l4.085254,5.344221zm44.582098,66.462597c1.882376,1.29486 32.117037,46.540692 31.921286,47.728834c-0.04003,0.498395 -10.795248,8.001414 -23.940034,16.77721l-24.029068,15.887225l-15.48675,-24.518577l-15.540152,-24.603124l1.877802,-1.895748c2.963538,-3.172924 17.225205,-13.363844 30.899531,-22.237559c11.444965,-7.347298 12.989066,-8.086049 14.297385,-7.138262zm49.165747,71.846848c1.860205,3.319584 9.612465,15.218427 17.297951,26.449781c7.738888,11.315901 13.995876,20.847433 13.902444,21.261281c-0.249154,1.103595 -18.947286,14.569845 -34.343692,24.649561l-14.381845,9.438885l-17.160001,-26.418637c-9.492288,-14.466392 -17.151116,-26.779083 -17.111085,-27.277478c0.289184,-1.60199 15.827939,-12.954395 32.376857,-23.643798l16.264133,-10.391246l3.155239,5.93165zm44.426376,67.152344c1.615363,0.872126 4.120798,3.902439 7.752173,9.651622c2.937142,4.650075 10.569225,15.796882 16.95079,24.776617c6.297018,9.033137 11.441438,16.42874 11.410294,16.56669c-0.031144,0.137949 -11.792038,7.921354 -26.035933,17.391383l-25.920242,17.200031l-4.939695,-6.69697c-2.794706,-3.675543 -10.578111,-15.436437 -17.360239,-26.173882l-12.3894,-19.614862l2.416227,-2.354113c1.223686,-1.246031 10.910939,-8.192766 21.350227,-15.259679c10.577238,-7.035769 20.340152,-13.675461 21.724045,-14.667852c1.922318,-1.450756 3.257296,-1.584306 5.041752,-0.818985zm58.163951,82.722156c5.647301,8.379021 13.310529,19.387879 17.066481,24.585265l6.701981,9.487015l-5.869274,5.126561c-3.230551,2.750189 -15.561014,11.129909 -27.397568,18.60627l-21.559438,13.617659l-2.914884,-4.427579c-22.669353,-34.766514 -28.396802,-44.395965 -27.426757,-45.481788c3.595396,-4.045137 8.147551,-7.511818 24.398312,-18.486006c10.016555,-6.7999 20.171058,-13.568656 22.484967,-15.148475l4.205082,-2.892625l10.311098,15.013703zm50.527556,75.126402c8.762423,12.561845 16.630375,24.269336 17.47593,25.98253l1.530903,3.172749l-17.434416,11.721824c-9.562676,6.394938 -22.039974,15.103958 -27.829188,19.233729l-10.363628,7.373956l-16.278902,-26.147225l-16.194356,-26.200627l3.377386,-3.079491c1.846658,-1.757799 12.463926,-9.291962 23.610733,-16.924045c11.20021,-7.547536 21.586096,-14.698996 23.277032,-15.767048l2.93688,-2.091587l15.891625,22.725235zm34.916142,48.912402c1.375095,1.615275 8.464266,12.27706 15.673615,23.690881l13.190438,20.883064l-18.764907,12.798761c-18.173079,12.424943 -38.495459,25.379513 -39.461105,25.161503c-0.275899,-0.062288 -7.182604,-10.247937 -15.477776,-22.631802l-15.148475,-22.484967l2.870105,-2.759075c1.593017,-1.597591 12.010047,-8.887 23.210257,-16.434536c11.253613,-7.462989 22.876557,-15.277538 25.866839,-17.284578l5.473285,-3.693664l2.567723,2.754414zm60.144421,89.040996l16.367848,24.789989l-16.873733,11.485955c-9.255633,6.319277 -22.738607,15.308683 -29.925087,19.847902l-12.997951,8.446494l-16.795069,-25.466364c-9.309821,-13.990255 -16.848472,-25.55091 -16.817328,-25.68886c0.204637,-1.548588 15.098162,-12.611721 33.93873,-25.103439c22.79201,-15.224136 23.299291,-15.544551 25.043717,-14.280836c1.010163,0.663002 9.10061,12.348235 18.058872,25.969158zm35.445769,51.061704c2.710159,3.728946 10.075229,14.453019 16.416764,23.931149l11.423666,17.149631l-2.046895,2.002553c-4.569927,4.187573 -46.91891,32.829042 -53.433501,35.997654l-6.852779,3.382222l-15.482263,-23.575189l-15.42886,-23.490643l6.559021,-4.97084c3.50645,-2.687901 16.967165,-11.899803 29.773765,-20.461988c12.806599,-8.562185 23.499529,-15.789306 23.784313,-16.087463c0.200238,-0.244755 2.630012,2.478515 5.286769,6.122914zm44.510836,64.851721c0.547398,1.42841 7.752261,11.898843 15.9584,23.392723c8.237283,11.355931 15.451031,21.465918 16.091862,22.48048c1.068052,1.690936 0.476224,2.064754 -22.60057,17.587047c-13.06024,8.722393 -27.366424,18.468321 -31.802888,21.74365l-8.049719,5.794137l-2.558837,-3.11486c-1.428497,-1.699822 -9.029436,-12.984579 -16.973049,-24.999113l-14.329664,-21.937656l3.061457,-2.643384c6.554534,-5.914227 18.609098,-14.356235 38.878076,-27.395351l21.336942,-13.595401l0.987991,2.687726zm57.883653,83.963701c6.746497,9.932008 14.485386,21.247909 17.164401,25.114804l4.899665,7.195365l-33.022175,21.685849c-18.133049,11.926548 -33.436023,21.592416 -33.98782,21.467839c-0.498395,-0.04003 -8.099334,-11.324787 -16.919646,-24.914566l-16.038547,-24.643154l4.512126,-2.968286c2.398455,-1.633222 9.371324,-6.510629 15.467581,-10.71606c6.042854,-4.289979 18.849454,-12.852164 28.349841,-18.971203l17.309839,-11.170026l12.264735,17.919439zm51.871419,74.632406c9.042809,13.567521 16.336704,24.927939 16.243272,25.341787c-0.133463,0.912243 -32.25228,23.092 -52.129668,36.002053l-15.142766,9.919508l-6.145697,-8.419051c-7.725516,-10.732959 -23.586083,-35.843364 -25.045812,-39.652457l-1.094797,-2.85682l14.906897,-10.480192c8.103122,-5.70959 23.22363,-15.851594 33.400392,-22.397854l18.662588,-12.024467l16.34559,24.567493zm31.449461,44.360247c0.382704,0.231382 8.090448,11.685233 17.070968,25.528652l16.274416,25.203837l-4.276257,3.52897c-4.529897,3.689178 -27.517658,20.101456 -50.687885,36.037597l-13.714356,9.37211l-16.986421,-25.582055c-9.363224,-14.074802 -16.892988,-25.995903 -16.799556,-26.409751c0.155721,-0.689747 22.391447,-16.981847 39.55885,-29.126405c12.054564,-8.442008 28.710287,-18.962317 29.560242,-18.552955zm52.610257,78.423728c2.136103,3.381873 7.587566,10.701815 12.108927,16.361965c4.521361,5.66015 9.118382,11.627343 10.186434,13.31828l2.029298,3.212779l-16.232989,10.253296c-18.769393,11.855374 -48.000421,28.307944 -53.006542,29.932367c-3.577711,1.077025 22.845412,-15.139589 49.410972,-30.381671c12.072423,-6.915678 13.287223,-7.801264 11.525025,-8.344088c-3.853697,-1.232484 -10.230339,1.967272 -37.930551,19.34537c-15.102736,9.421113 -28.50565,17.413729 -29.902916,17.823178c-2.064754,0.476224 -1.77997,0.178067 1.463954,-1.989181c2.144815,-1.473014 3.706687,-2.932656 3.493077,-3.270843c-0.854441,-1.352749 -3.822553,-1.370434 -6.02077,0.018034c-4.565528,2.88374 -4.512126,2.968286 -13.537162,-11.320126l-8.384206,-13.27385l17.167403,-12.144558c9.487015,-6.701981 25.452991,-17.378011 35.545207,-23.870868l18.239854,-11.757454l3.844986,6.087371zm7.344383,50.951547c11.680833,-6.786615 23.352781,-13.212784 25.849155,-14.316467c4.516612,-2.024899 4.432065,-1.971496 -2.527431,3.488852c-8.312246,6.31479 -32.12779,20.292982 -41.067582,23.928932c-3.364101,1.415212 -12.308292,6.354995 -19.832958,11.107825c-9.94538,6.163556 -14.217238,8.388692 -15.543329,8.161797c-1.931292,-0.436019 10.772989,-8.223911 53.122146,-32.370939zm-77.306498,60.184014c2.278365,-0.138037 -30.249901,20.644455 -33.711922,21.530127c-2.456344,0.605287 -1.833372,0.09352 3.061457,-2.643384c3.404131,-1.913607 6.848292,-4.325609 7.764935,-5.49598c1.833285,-2.340741 20.553762,-13.337274 22.88553,-13.390764z" id="svg_2"/>
   <path d="m586.551366,1163.751564z" id="svg_5"/>
  </g>
 </g>
</svg>