<svg width="1000" height="1000" xmlns="http://www.w3.org/2000/svg">

 <g>
  <title>background</title>
  <rect fill="none" id="canvas_background" height="1002" width="1002" y="-1" x="-1"/>
 </g>
 <g>
  <title>Layer 1</title>
  <g transform="rotate(68.69901275634766 733.0042114257814,408.25338745117176) " id="svg_1">
   <rect id="svg_2" fill="#E1BE8C" height="17.655" width="158.897" y="183.150384" x="653.555727"/>
   <rect id="svg_3" fill="#E1BE8C" height="17.655" width="158.897" y="244.943384" x="653.555727"/>
   <rect id="svg_4" fill="#E1BE8C" height="17.655" width="158.897" y="306.736384" x="653.555727"/>
   <rect id="svg_5" fill="#E1BE8C" height="17.655" width="158.897" y="553.908384" x="653.555727"/>
   <rect id="svg_6" fill="#E1BE8C" height="17.655" width="158.897" y="368.529384" x="653.555727"/>
   <rect id="svg_7" fill="#E1BE8C" height="17.655" width="158.897" y="430.322384" x="653.555727"/>
   <rect id="svg_8" fill="#E1BE8C" height="17.655" width="158.897" y="492.115384" x="653.555727"/>
   <rect id="svg_9" fill="#E1BE8C" height="17.655" width="158.897" y="615.701384" x="653.555727"/>
  </g>
  <g transform="rotate(66.96586608886719 274.3341674804687,588.2548217773438) " id="svg_36">
   <rect id="svg_28" fill="#E1BE8C" height="17.655" width="158.897" y="363.151713" x="194.885692"/>
   <rect id="svg_29" fill="#E1BE8C" height="17.655" width="158.897" y="424.944713" x="194.885692"/>
   <rect id="svg_30" fill="#E1BE8C" height="17.655" width="158.897" y="486.737713" x="194.885692"/>
   <rect id="svg_31" fill="#E1BE8C" height="17.655" width="158.897" y="733.909713" x="194.885692"/>
   <rect id="svg_32" fill="#E1BE8C" height="17.655" width="158.897" y="548.530713" x="194.885692"/>
   <rect id="svg_33" fill="#E1BE8C" height="17.655" width="158.897" y="610.323713" x="194.885692"/>
   <rect id="svg_34" fill="#E1BE8C" height="17.655" width="158.897" y="672.116713" x="194.885692"/>
   <rect id="svg_35" fill="#E1BE8C" height="17.655" width="158.897" y="795.702713" x="194.885692"/>
  </g>
  <g stroke="null" transform="rotate(68.38392639160156 503.3353881835937,501.66806030273443) " id="svg_10">
   <path stroke="null" id="svg_11" fill="#FFDCA0" d="m589.199774,997.872307l8.674955,0c4.903364,0 8.831163,-8.012924 8.668078,-17.681154l-16.188665,-958.187885c-0.157191,-9.222422 -3.992641,-16.539496 -8.66906,-16.539496l-8.674955,0c-4.903364,0 -8.831163,8.012924 -8.668078,17.681154l16.188665,958.187885c0.156208,9.222422 3.990676,16.539496 8.66906,16.539496z"/>
   <path stroke="null" id="svg_12" fill="#FFDCA0" d="m417.471033,997.872307l-8.674955,0c-4.903364,0 -8.831163,-8.012924 -8.668078,-17.681154l16.188665,-958.187885c0.157191,-9.222422 3.992641,-16.539496 8.66906,-16.539496l8.674955,0c4.903364,0 8.831163,8.012924 8.668078,17.681154l-16.188665,958.187885c-0.156208,9.222422 -3.990676,16.539496 -8.66906,16.539496z"/>
  </g>
  <g id="svg_13"/>
  <g id="svg_14"/>
  <g id="svg_15"/>
  <g id="svg_16"/>
  <g id="svg_17"/>
  <g id="svg_18"/>
  <g id="svg_19"/>
  <g id="svg_20"/>
  <g id="svg_21"/>
  <g id="svg_22"/>
  <g id="svg_23"/>
  <g id="svg_24"/>
  <g id="svg_25"/>
  <g id="svg_26"/>
  <g transform="rotate(-58 0,0) " id="svg_27"/>
 </g>
</svg>