<svg width="750" height="1280" xmlns="http://www.w3.org/2000/svg" preserveAspectRatio="xMidYMid meet">

 <g>
  <title>background</title>
  <rect fill="none" id="canvas_background" height="1282" width="752" y="-1" x="-1"/>
 </g>
 <g>
  <title>Layer 1</title>
  <g id="svg_1" fill="#c1c332" transform="rotate(-22.07910919189453 320.049987792969,640.4277954101561) translate(0,1280) scale(0.10000000149011612,-0.10000000149011612) ">
   <path id="svg_2" d="m3118,12790c-26,-5 -70,-16 -97,-25c-55,-18 -54,-15 -66,-170c-12,-147 -23,-4870 -15,-6340c3,-517 5,-1129 5,-1360c0,-2517 -1,-4070 -4,-4325c0,-47 -4,-98 -9,-114l-8,-29l-163,2c-109,2 -161,-1 -157,-8c13,-21 78,-29 193,-24c108,5 120,4 143,-15l25,-20l-26,-7c-14,-3 -55,-2 -91,2c-36,5 -73,6 -83,3c-17,-6 -16,-8 5,-23c19,-13 38,-16 90,-11c52,5 69,2 85,-11c19,-15 11,-16 -120,-10c-77,3 -158,9 -180,13c-26,5 -54,3 -80,-6c-29,-11 -77,-14 -175,-11c-194,5 -413,0 -423,-10c-5,-5 28,-12 74,-16c92,-7 510,0 599,10c38,5 86,0 158,-15c57,-11 107,-18 112,-15c11,7 40,-5 40,-16c0,-12 -304,-11 -451,1c-173,14 -341,16 -363,4c-16,-10 -13,-12 25,-17c24,-4 166,-11 314,-17c376,-14 417,-17 445,-29c19,-9 -66,-10 -332,-6c-353,6 -390,3 -337,-25c20,-11 382,-5 401,6c4,3 45,-2 91,-10c45,-8 108,-14 139,-13c35,1 62,-3 69,-10c10,-11 -49,-13 -296,-13c-247,0 -307,-3 -297,-12c8,-8 48,-14 105,-16c107,-3 137,-8 137,-23c0,-8 -13,-9 -39,-5c-42,6 -69,-10 -29,-18c36,-7 402,-26 646,-33l224,-6l-2,49c-1,27 -1,55 -1,63c1,16 203,12 750,-15c311,-16 476,-13 573,7l49,11l-5,66c-3,37 -8,148 -11,247c-7,206 -36,727 -65,1150c-59,867 -79,1232 -115,2100c-14,341 -37,818 -50,1061c-14,242 -25,530 -24,640c0,109 -4,258 -10,329c-26,323 -43,692 -76,1680c-26,784 -33,939 -65,1505c-42,728 -70,1327 -110,2305c-11,270 -29,724 -41,1010c-11,286 -22,525 -24,532c-2,7 -23,22 -47,35c-37,20 -56,23 -133,21c-49,0 -110,-8 -135,-16l-45,-14l0,-114l0,-114l-75,-2c-41,-2 -141,-7 -222,-13c-80,-5 -167,-7 -193,-3l-47,6l7,123c7,113 6,123 -11,132c-29,16 -104,21 -156,12zm706,-472c3,-18 9,-150 12,-294l7,-261l-154,-7c-85,-3 -206,-9 -270,-13l-116,-6l-6,25c-9,33 -10,558 -2,567c4,3 106,9 228,12c122,3 238,6 258,7c34,2 37,0 43,-30zm19,-805c12,-127 20,-583 11,-583c-5,0 -92,-7 -194,-15c-162,-14 -277,-13 -345,0c-19,4 -20,13 -23,320c-2,269 0,316 12,321c18,7 272,20 422,22l111,2l6,-67zm22,-800c9,-21 23,-565 15,-574c-3,-4 -134,-10 -292,-14l-288,-6l0,290l0,291l26,6c42,11 217,21 380,23c136,1 153,-1 159,-16zm32,-870c-2,-38 0,-180 5,-316c5,-137 7,-251 4,-254c-8,-8 -238,-22 -422,-25l-172,-3l-4,315c-3,173 -2,318 1,322c11,12 203,25 400,27l193,1l-5,-67zm17,-805c9,-16 14,-55 14,-123c0,-55 5,-190 11,-300c5,-110 9,-200 8,-201c-1,-1 -142,-4 -313,-8l-311,-7l-6,83c-4,46 -7,187 -7,314l0,232l33,7c17,4 136,11 262,15c127,3 245,7 262,8c24,2 36,-4 47,-20zm50,-1010c3,-101 9,-235 13,-299l6,-116l-77,-12c-42,-6 -191,-11 -331,-11l-255,0l-1,53c-6,415 -3,527 11,531c52,15 109,20 305,26c121,4 243,7 271,8l51,2l7,-182zm26,-905c7,-153 11,-294 9,-313l-4,-35l-210,-6c-115,-3 -267,-10 -338,-14l-127,-7l2,308l3,308l45,8c25,5 155,12 290,17c135,4 261,9 281,9l36,2l13,-277zm34,-600c3,-21 6,-149 6,-284l0,-247l-227,-8c-220,-8 -461,-9 -468,-2c-2,2 -6,125 -10,274l-8,271l39,8c22,5 149,11 284,15c135,3 275,7 311,8l66,2l7,-37zm33,-1074l6,-297l-204,-7c-112,-4 -274,-8 -359,-8l-155,-2l-6,305c-4,168 -6,306 -5,307c10,12 195,26 421,31c274,7 280,7 288,-13c5,-11 11,-153 14,-316zm27,-621c3,-46 8,-176 11,-290l5,-206l-28,-6c-61,-11 -572,-27 -644,-19l-76,8l-5,282l-5,281l82,7c44,4 207,10 361,14c154,4 283,8 287,9c3,1 9,-35 12,-80zm30,-786c-3,-15 2,-142 10,-283c9,-140 16,-264 16,-276c0,-20 -7,-20 -285,-28c-157,-4 -330,-10 -385,-14l-99,-6l-5,40c-3,22 -7,158 -10,302l-4,262l40,6c87,15 234,22 475,24l253,1l-6,-28zm41,-1019c4,-120 9,-257 11,-304l3,-87l-395,-7c-217,-4 -398,-4 -402,0c-4,3 -8,139 -10,301l-4,294l54,1c29,1 114,5 188,8c74,4 228,8 341,9l206,2l8,-217zm40,-908c4,-163 5,-298 2,-301c-6,-7 -396,-23 -633,-26l-181,-3l-7,104c-8,132 -8,429 0,469l6,30l182,9c99,5 281,10 402,11l222,2l7,-295zm29,-543c2,-4 6,-142 8,-307l3,-300l-55,-7c-58,-7 -340,-23 -621,-34l-166,-6l-7,307c-4,169 -4,310 -1,313c5,5 280,24 490,35c147,7 344,7 349,-1zm26,-944c0,-40 7,-131 15,-203c8,-72 15,-147 15,-167l0,-38l-192,0c-222,0 -557,17 -608,30c-36,10 274,6 580,-7c139,-6 154,-5 142,9c-26,31 -97,38 -424,39c-178,1 -334,5 -348,9c-20,7 -16,8 23,9c26,1 47,5 47,9c0,16 -25,32 -51,32c-54,0 -54,-1 -54,168l0,157l210,11c116,6 308,11 428,12l217,2l0,-72zm-210,-470c135,-5 268,-13 295,-17c49,-7 48,-7 -40,-16c-104,-9 -380,0 -475,17c-36,6 -138,12 -227,12c-117,1 -165,5 -175,14c-14,14 135,12 622,-10zm-975,-96c20,-11 -366,-13 -400,-2c-24,8 -16,9 40,6c39,-2 81,0 95,5c28,10 245,3 265,-9z"/>
   <path id="svg_3" d="m1675,691c-51,-12 74,-22 247,-21c84,1 181,-2 215,-5c61,-7 93,2 93,26c0,10 -510,10 -555,0z"/>
   <path id="svg_4" d="m1630,641c0,-29 59,-35 375,-39c246,-3 327,-1 350,9c26,12 -1,14 -205,20c-129,3 -299,10 -377,14c-106,6 -143,5 -143,-4z"/>
   <path id="svg_5" d="m1680,571c0,-25 50,-29 497,-35c454,-6 473,-6 482,12c9,18 3,19 -96,26c-159,9 -883,7 -883,-3z"/>
   <path id="svg_6" d="m1732,499c4,-11 54,-15 254,-20c227,-6 280,-2 261,17c-4,4 -122,9 -263,12c-216,4 -256,3 -252,-9z"/>
   <path id="svg_7" d="m2454,499c-7,-12 21,-26 61,-32c22,-2 114,-2 205,2l165,7l-39,18c-34,15 -63,17 -214,14c-95,-1 -176,-6 -178,-9z"/>
   <path id="svg_8" d="m1843,433c-64,-4 -82,-16 -40,-27c36,-9 153,-7 270,6c96,11 116,10 174,-5c47,-12 70,-14 84,-7c57,31 -4,40 -241,38c-102,-1 -213,-3 -247,-5z"/>
   <path id="svg_9" d="m1851,366c-12,-15 0,-16 135,-16c82,0 228,-3 324,-7l175,-6l-19,22c-16,17 -26,20 -50,14c-35,-8 -423,-6 -502,3c-39,5 -53,2 -63,-10z"/>
  </g>
 </g>
</svg>