<svg width="249.99999999999997" height="249.99999999999997" xmlns="http://www.w3.org/2000/svg">
 <g>
  <title>background</title>
  <rect x="-1" y="-1" width="252" height="252" id="canvas_background" fill="none"/>
 </g>

 <g>
  <title>Layer 1</title>
  <rect transform="rotate(-28.603307723999023 82.96458435058594,56.95057296752928) " id="svg_55" height="11.924346" width="101.741783" y="50.9884" x="32.093685" stroke-width="1.5" fill="#E1BE8C"/>
  <rect transform="rotate(-28.603307723999023 101.5852813720703,95.57126617431642) " id="svg_56" height="11.924346" width="101.741783" y="89.60909" x="50.714375" stroke-width="1.5" fill="#E1BE8C"/>
  <rect transform="rotate(-28.603307723999023 123.65423583984379,133.5023193359375) " id="svg_57" height="11.924346" width="101.741783" y="127.540124" x="72.783341" stroke-width="1.5" fill="#E1BE8C"/>
  <rect transform="rotate(-28.603307723999023 144.34388732910165,174.88163757324222) " id="svg_58" height="11.924346" width="101.741783" y="168.919435" x="93.472996" stroke-width="1.5" fill="#E1BE8C"/>
  <g stroke="null" id="svg_10" transform="rotate(-29.021392822265625 116.39691925048825,122.06973266601564) ">
   <path stroke="null" d="m168.078361,226.802148l5.221425,0c2.951314,0 5.315442,-1.691264 5.217284,-3.73191l-9.743899,-202.241984c-0.094612,-1.946552 -2.403155,-3.490945 -5.217874,-3.490945l-5.221425,0c-2.951314,0 -5.315442,1.691264 -5.217278,3.73191l9.743893,202.241986c0.094022,1.94655 2.401975,3.490943 5.217874,3.490943z" fill="#FFDCA0" id="svg_11"/>
   <path stroke="null" d="m64.715488,226.802148l-5.221425,0c-2.951314,0 -5.315442,-1.691264 -5.217278,-3.73191l9.743893,-202.241984c0.094612,-1.946552 2.403155,-3.490945 5.217874,-3.490945l5.221425,0c2.951314,0 5.315442,1.691264 5.217284,3.73191l-9.743899,202.241986c-0.094022,1.94655 -2.401975,3.490943 -5.217874,3.490943z" fill="#FFDCA0" id="svg_12"/>
  </g>
  <g id="svg_13"/>
  <g id="svg_14"/>
  <g id="svg_15"/>
  <g id="svg_16"/>
  <g id="svg_17"/>
  <g id="svg_18"/>
  <g id="svg_19"/>
  <g id="svg_20"/>
  <g id="svg_21"/>
  <g id="svg_22"/>
  <g id="svg_23"/>
  <g id="svg_24"/>
  <g id="svg_25"/>
  <g id="svg_26"/>
  <g id="svg_27" transform="rotate(-58 1.3793103694915774,-6.206896781921387) "/>
 </g>
</svg>