<svg width="800" height="1000" xmlns="http://www.w3.org/2000/svg">

 <g>
  <title>background</title>
  <rect fill="none" id="canvas_background" height="1002" width="802" y="-1" x="-1"/>
 </g>
 <g>
  <title>Layer 1</title>
  <g transform="rotate(30.6120548248291 530.3360595703125,298.91925048828125) " id="svg_1">
   <rect id="svg_2" fill="#E1BE8C" height="17.655" width="158.897" y="73.816255" x="450.887571"/>
   <rect id="svg_3" fill="#E1BE8C" height="17.655" width="158.897" y="135.609255" x="450.887571"/>
   <rect id="svg_4" fill="#E1BE8C" height="17.655" width="158.897" y="197.402255" x="450.887571"/>
   <rect id="svg_5" fill="#E1BE8C" height="17.655" width="158.897" y="444.574255" x="450.887571"/>
   <rect id="svg_6" fill="#E1BE8C" height="17.655" width="158.897" y="259.195255" x="450.887571"/>
   <rect id="svg_7" fill="#E1BE8C" height="17.655" width="158.897" y="320.988255" x="450.887571"/>
   <rect id="svg_8" fill="#E1BE8C" height="17.655" width="158.897" y="382.781255" x="450.887571"/>
   <rect id="svg_9" fill="#E1BE8C" height="17.655" width="158.897" y="506.367255" x="450.887571"/>
  </g>
  <g transform="rotate(30.6120548248291 279.6675720214841,722.9223022460939) " id="svg_36">
   <rect id="svg_28" fill="#E1BE8C" height="17.655" width="158.897" y="497.819361" x="200.219066"/>
   <rect id="svg_29" fill="#E1BE8C" height="17.655" width="158.897" y="559.612361" x="200.219066"/>
   <rect id="svg_30" fill="#E1BE8C" height="17.655" width="158.897" y="621.405361" x="200.219066"/>
   <rect id="svg_31" fill="#E1BE8C" height="17.655" width="158.897" y="868.577361" x="200.219066"/>
   <rect id="svg_32" fill="#E1BE8C" height="17.655" width="158.897" y="683.198361" x="200.219066"/>
   <rect id="svg_33" fill="#E1BE8C" height="17.655" width="158.897" y="744.991361" x="200.219066"/>
   <rect id="svg_34" fill="#E1BE8C" height="17.655" width="158.897" y="806.784361" x="200.219066"/>
   <rect id="svg_35" fill="#E1BE8C" height="17.655" width="158.897" y="930.370361" x="200.219066"/>
  </g>
  <g stroke="null" transform="rotate(30.663833618164062 403.3346557617185,509.6680908203126) " id="svg_10">
   <path stroke="null" id="svg_11" fill="#FFDCA0" d="m489.199042,1005.872365l8.674955,0c4.903364,0 8.831163,-8.012924 8.668078,-17.681154l-16.188665,-958.187885c-0.157191,-9.222422 -3.992641,-16.539496 -8.66906,-16.539496l-8.674955,0c-4.903364,0 -8.831163,8.012924 -8.668078,17.681154l16.188665,958.187885c0.156208,9.222422 3.990676,16.539496 8.66906,16.539496z"/>
   <path stroke="null" id="svg_12" fill="#FFDCA0" d="m317.4703,1005.872365l-8.674955,0c-4.903364,0 -8.831163,-8.012924 -8.668078,-17.681154l16.188665,-958.187885c0.157191,-9.222422 3.992641,-16.539496 8.66906,-16.539496l8.674955,0c4.903364,0 8.831163,8.012924 8.668078,17.681154l-16.188665,958.187885c-0.156208,9.222422 -3.990676,16.539496 -8.66906,16.539496z"/>
  </g>
  <g id="svg_13"/>
  <g id="svg_14"/>
  <g id="svg_15"/>
  <g id="svg_16"/>
  <g id="svg_17"/>
  <g id="svg_18"/>
  <g id="svg_19"/>
  <g id="svg_20"/>
  <g id="svg_21"/>
  <g id="svg_22"/>
  <g id="svg_23"/>
  <g id="svg_24"/>
  <g id="svg_25"/>
  <g id="svg_26"/>
  <g transform="rotate(-58 0,0) " id="svg_27"/>
 </g>
</svg>